<svg width="187" height="196" viewBox="0 0 187 196" fill="none" xmlns="http://www.w3.org/2000/svg">
<path d="M93.6333 32.4434C89.9635 32.5123 86.8477 29.4107 86.8477 25.6889C86.8477 22.1738 89.8943 19.2101 93.4256 19.1411C97.0954 19.0722 100.004 21.8981 100.142 25.4821C100.35 29.2729 97.3724 32.3745 93.6333 32.4434Z" fill="white"/>
<path d="M93.6333 118.34C89.9635 118.409 86.8477 115.307 86.8477 111.585C86.8477 108.07 89.8943 105.106 93.4256 105.037C97.0954 104.968 100.004 107.794 100.142 111.378C100.35 115.169 97.3724 118.271 93.6333 118.34Z" fill="white"/>
<path d="M93.4999 -0.000244141C96.4482 -0.000244141 98.9166 2.45248 98.9851 5.38212C98.9851 8.51615 96.4482 11.037 93.3628 10.9689C90.483 10.9007 88.0146 8.24363 88.0146 5.38212C88.0146 2.52061 90.6201 -0.000244141 93.4999 -0.000244141Z" fill="white"/>
<path d="M93.4999 126.51C96.4482 126.51 98.9166 128.963 98.9851 131.893C98.9851 135.027 96.4482 137.548 93.3628 137.48C90.483 137.411 88.0146 134.754 88.0146 131.893C88.0146 129.031 90.6201 126.51 93.4999 126.51Z" fill="white"/>
<path d="M136.583 76.3255C132.913 76.3944 129.797 73.2928 129.797 69.571C129.797 66.0558 132.844 63.0921 136.375 63.0232C140.045 62.9543 142.953 65.7802 143.091 69.3642C143.299 73.155 140.322 76.2565 136.583 76.3255Z" fill="white"/>
<path d="M141.933 111.585C142.001 114.482 139.535 117.104 136.588 117.173C133.573 117.242 131.107 114.965 130.969 111.93C130.832 108.757 133.231 106.205 136.383 106.205C139.398 106.136 141.864 108.55 141.933 111.585Z" fill="white"/>
<path d="M141.933 25.6889C142.001 28.5859 139.535 31.2071 136.588 31.2761C133.573 31.3451 131.107 29.0688 130.969 26.0337C130.832 22.8608 133.231 20.3086 136.383 20.3086C139.398 20.2396 141.864 22.6538 141.933 25.6889Z" fill="white"/>
<path d="M141.933 47.163C142.001 50.0601 139.535 52.6812 136.588 52.7502C133.573 52.8192 131.107 50.5429 130.969 47.5079C130.832 44.3349 133.231 41.7827 136.383 41.7827C139.398 41.7137 141.864 44.1279 141.933 47.163Z" fill="white"/>
<path d="M141.933 89.9945C142.001 92.8916 139.535 95.5128 136.588 95.5817C133.573 95.6507 131.107 93.3744 130.969 90.3394C130.832 87.1664 133.231 84.6142 136.383 84.6142C139.398 84.5453 141.864 86.9595 141.933 89.9945Z" fill="white"/>
<path d="M50.6851 76.3255C47.0153 76.3944 43.8994 73.2928 43.8994 69.571C43.8994 66.0558 46.946 63.0921 50.4774 63.0232C54.1472 62.9543 57.0553 65.7802 57.1938 69.3642C57.4015 73.155 54.4241 76.2565 50.6851 76.3255Z" fill="white"/>
<path d="M56.0355 89.9945C56.104 92.8916 53.6372 95.5128 50.6908 95.5817C47.6758 95.6507 45.209 93.3744 45.072 90.3394C44.935 87.1664 47.3332 84.6142 50.4852 84.6142C53.5002 84.5453 55.967 86.9595 56.0355 89.9945Z" fill="white"/>
<path d="M56.0355 25.6889C56.104 28.5859 53.6372 31.2071 50.6908 31.2761C47.6758 31.3451 45.209 29.0688 45.072 26.0337C44.935 22.8608 47.3332 20.3086 50.4852 20.3086C53.5002 20.2396 55.967 22.6538 56.0355 25.6889Z" fill="white"/>
<path d="M56.0355 47.163C56.104 50.0601 53.6372 52.6812 50.6908 52.7502C47.6758 52.8192 45.209 50.5429 45.072 47.5079C44.935 44.3349 47.3332 41.7827 50.4852 41.7827C53.5002 41.7137 55.967 44.1279 56.0355 47.163Z" fill="white"/>
<path d="M56.0355 111.585C56.104 114.482 53.6372 117.104 50.6908 117.173C47.6758 117.242 45.209 114.965 45.072 111.93C44.935 108.757 47.3332 106.205 50.4852 106.205C53.5002 106.136 55.967 108.55 56.0355 111.585Z" fill="white"/>
<path d="M77.5101 111.585C77.5786 114.482 75.1118 117.103 72.1654 117.172C69.1504 117.241 66.6837 114.965 66.5466 111.93C66.4096 108.757 68.8078 106.205 71.9598 106.205C74.9748 106.136 77.4416 108.55 77.5101 111.585Z" fill="white"/>
<path d="M77.5101 25.6886C77.5786 28.5857 75.1118 31.2069 72.1654 31.2758C69.1504 31.3448 66.6837 29.0685 66.5466 26.0335C66.4096 22.8605 68.8078 20.3083 71.9598 20.3083C74.9748 20.2393 77.4416 22.6536 77.5101 25.6886Z" fill="white"/>
<circle cx="72.0262" cy="5.48516" r="4.31816" fill="white"/>
<circle cx="72.0262" cy="131.996" r="4.31816" fill="white"/>
<path d="M120.459 25.6886C120.527 28.5857 118.061 31.2069 115.114 31.2758C112.099 31.3448 109.632 29.0685 109.495 26.0335C109.358 22.8605 111.757 20.3083 114.909 20.3083C117.924 20.2393 120.39 22.6536 120.459 25.6886Z" fill="white"/>
<path d="M120.459 111.585C120.527 114.482 118.061 117.103 115.114 117.172C112.099 117.241 109.632 114.965 109.495 111.93C109.358 108.757 111.757 106.205 114.909 106.205C117.924 106.136 120.39 108.55 120.459 111.585Z" fill="white"/>
<circle cx="114.974" cy="5.48516" r="4.31816" fill="white"/>
<circle cx="114.974" cy="131.996" r="4.31816" fill="white"/>
<path d="M30.245 63.1387C33.1933 63.1387 35.6617 65.5914 35.7302 68.521C35.7302 71.6551 33.1933 74.1759 30.1079 74.1078C27.2281 74.0397 24.7598 71.3825 24.7598 68.521C24.7598 65.6595 27.3653 63.1387 30.245 63.1387Z" fill="white"/>
<circle cx="30.2444" cy="89.0477" r="4.31816" fill="white"/>
<circle cx="30.2444" cy="47.2664" r="4.31816" fill="white"/>
<path d="M156.755 64.189C159.704 64.189 162.172 66.6417 162.24 69.5713C162.24 72.7054 159.704 75.2262 156.618 75.1581C153.738 75.09 151.27 72.4328 151.27 69.5713C151.27 66.7098 153.876 64.189 156.755 64.189Z" fill="white"/>
<circle cx="156.755" cy="47.2664" r="4.31816" fill="white"/>
<circle cx="156.755" cy="90.0977" r="4.31816" fill="white"/>
<path fill-rule="evenodd" clip-rule="evenodd" d="M87.4694 80.5525C88.7006 81.9994 90.8715 82.1743 92.3184 80.9431C93.7653 79.712 93.9402 77.541 92.7091 76.0941L82.4951 64.0901C81.4017 62.8051 81.4017 60.9168 82.4951 59.6318L90.6487 50.0492C91.3023 49.2811 92.26 48.8385 93.2686 48.8385H113.675C115.575 48.8385 117.115 47.2984 117.115 45.3986C117.115 43.4988 115.575 41.9587 113.675 41.9587H93.2686C90.243 41.9587 87.3698 43.2865 85.4091 45.5908L77.2554 55.1734C73.9752 59.0284 73.9752 64.6935 77.2554 68.5485L87.4694 80.5525ZM99.3386 56.929C98.1074 55.4821 95.9364 55.3072 94.4895 56.5384C93.0426 57.7695 92.8677 59.9405 94.0989 61.3874L104.313 73.3913C105.406 74.6764 105.406 76.5647 104.313 77.8497L96.1592 87.4323C95.5056 88.2004 94.5479 88.643 93.5394 88.643H73.1332C71.2335 88.643 69.6934 90.1831 69.6934 92.0829C69.6934 93.9827 71.2335 95.5228 73.1332 95.5228H93.5394C96.565 95.5228 99.4382 94.195 101.399 91.8907L109.553 82.3081C112.833 78.4531 112.833 72.788 109.553 68.933L99.3386 56.929Z" fill="white"/>
<path fill-rule="evenodd" clip-rule="evenodd" d="M4.97609 194.16C6.56568 194.551 8.28197 194.747 10.125 194.747C12.1523 194.747 13.9262 194.436 15.4466 193.814C16.9901 193.169 18.1881 192.271 19.0405 191.119C19.8929 189.944 20.319 188.596 20.319 187.076C20.319 185.855 20.0541 184.795 19.5243 183.897C18.9944 182.998 18.0959 182.215 16.8289 181.547C15.5618 180.856 13.8225 180.268 11.6109 179.784C10.2517 179.508 9.22651 179.243 8.53538 178.99C7.84426 178.713 7.37199 178.437 7.11858 178.16C6.86517 177.884 6.73846 177.527 6.73846 177.089C6.73846 176.352 7.09554 175.764 7.8097 175.327C8.52386 174.866 9.4684 174.636 10.6433 174.636C11.4957 174.636 12.279 174.728 12.9931 174.912C13.7303 175.073 14.3639 175.304 14.8937 175.603C15.4466 175.88 15.7807 176.052 15.8959 176.122C16.3566 176.398 16.7137 176.582 16.9671 176.674C17.2205 176.744 17.497 176.778 17.7964 176.778C18.3493 176.778 18.8216 176.525 19.2133 176.018C19.6279 175.511 19.8353 174.912 19.8353 174.221C19.8353 173.737 19.7431 173.334 19.5588 173.011C19.3976 172.666 19.1096 172.343 18.6949 172.044C17.6121 171.261 16.4142 170.685 15.1011 170.316C13.7879 169.947 12.2905 169.763 10.6088 169.763C8.69665 169.763 6.96884 170.109 5.42532 170.8C3.90485 171.468 2.7069 172.401 1.83148 173.599C0.956055 174.797 0.518343 176.133 0.518343 177.607C0.518343 178.898 0.771755 180.003 1.27858 180.925C1.80844 181.823 2.71842 182.607 4.00852 183.275C5.29862 183.943 7.08402 184.519 9.36473 185.002C11.2077 185.371 12.4518 185.751 13.0968 186.143C13.7649 186.511 14.0989 186.961 14.0989 187.491C14.0989 188.274 13.7419 188.873 13.0277 189.287C12.3366 189.679 11.3114 189.875 9.95219 189.875C8.77728 189.875 7.71755 189.76 6.77302 189.529C5.85152 189.299 4.9185 188.919 3.97396 188.389C3.55929 188.136 3.21373 187.963 2.93728 187.871C2.66083 187.778 2.37286 187.732 2.07337 187.732C1.52047 187.732 1.03669 187.986 0.622012 188.493C0.207337 188.999 0 189.598 0 190.29C0 190.796 0.0806312 191.211 0.241893 191.534C0.426193 191.856 0.714162 192.167 1.1058 192.467C2.11945 193.181 3.40955 193.745 4.97609 194.16ZM28.9948 193.227C30.8378 194.24 33.0033 194.747 35.4914 194.747C37.9564 194.747 40.0989 194.24 41.9188 193.227C43.7618 192.19 45.1786 190.739 46.1693 188.873C47.1599 186.984 47.6552 184.772 47.6552 182.238C47.6552 179.704 47.1599 177.504 46.1693 175.638C45.2017 173.749 43.7964 172.297 41.9534 171.284C40.1334 170.27 37.9794 169.763 35.4914 169.763C33.0033 169.763 30.8378 170.27 28.9948 171.284C27.1749 172.297 25.7696 173.749 24.779 175.638C23.7883 177.504 23.293 179.704 23.293 182.238C23.293 184.772 23.7883 186.984 24.779 188.873C25.7696 190.739 27.1749 192.19 28.9948 193.227ZM39.8109 187.94C38.7742 189.23 37.3344 189.875 35.4914 189.875C33.6484 189.875 32.2085 189.23 31.1719 187.94C30.1352 186.65 29.6168 184.749 29.6168 182.238C29.6168 179.727 30.1352 177.838 31.1719 176.571C32.2085 175.281 33.6484 174.636 35.4914 174.636C37.3113 174.636 38.7397 175.281 39.7764 176.571C40.8361 177.861 41.3659 179.75 41.3659 182.238C41.3659 184.726 40.8476 186.627 39.8109 187.94ZM54.3556 194.436C53.411 194.436 52.6853 194.183 52.1785 193.676C51.6717 193.169 51.4183 192.432 51.4183 191.464V173.011C51.4183 172.067 51.6947 171.318 52.2476 170.765C52.8236 170.189 53.5953 169.901 54.5629 169.901C55.5535 169.901 56.3368 170.189 56.9127 170.765C57.4887 171.318 57.7766 172.067 57.7766 173.011V189.287H65.7246C67.7288 189.287 68.7309 190.151 68.7309 191.879C68.7309 192.755 68.4775 193.4 67.9707 193.814C67.4869 194.229 66.7382 194.436 65.7246 194.436H54.3556ZM86.6952 170.316C86.2344 170.593 85.8774 171.007 85.6239 171.56L78.8509 186.281L72.0434 171.56C71.7899 171.007 71.4213 170.593 70.9376 170.316C70.4768 170.04 69.97 169.901 69.4171 169.901C68.5647 169.901 67.7929 170.178 67.1018 170.731C66.4107 171.261 66.0651 171.917 66.0651 172.7C66.0651 173.138 66.1573 173.541 66.3416 173.91L75.4644 192.743C75.7639 193.365 76.2131 193.849 76.8121 194.194C77.4111 194.517 78.0561 194.678 78.7473 194.678C79.4384 194.678 80.0834 194.517 80.6824 194.194C81.2814 193.849 81.7306 193.365 82.0301 192.743L91.1529 173.91C91.3603 173.495 91.464 173.092 91.464 172.7C91.464 171.894 91.1299 171.226 90.4618 170.696C89.7937 170.166 89.045 169.901 88.2157 169.901C87.6628 169.901 87.1559 170.04 86.6952 170.316ZM95.608 171.971C95.608 172.901 96.3616 173.654 97.2912 173.654H128.903C134.351 173.654 137.912 176.503 137.912 182.343C137.912 187.97 134.458 191.53 128.903 191.53C122.921 191.53 120.107 187.471 120.107 181.773V181.689C120.107 181.224 119.731 180.848 119.266 180.848H117.081C116.628 180.848 116.262 181.214 116.262 181.667C116.262 189.786 120.82 195.127 128.903 195.127C136.737 195.127 141.722 190.391 141.722 182.343C141.722 174.438 136.523 169.915 128.903 169.915H97.2912C96.3616 169.915 95.608 170.669 95.608 171.599V171.971ZM95.608 193.088C95.608 194.017 96.3616 194.771 97.2912 194.771H97.8418C98.7714 194.771 99.525 194.017 99.525 193.088V185.072C99.525 184.607 99.9018 184.231 100.367 184.231H111.182C111.647 184.231 112.024 183.854 112.024 183.389V181.689C112.024 181.224 111.647 180.848 111.182 180.848H97.2912C96.3616 180.848 95.608 181.601 95.608 182.531V193.088ZM146.085 193.088C146.085 194.017 146.839 194.771 147.768 194.771H148.248C149.177 194.771 149.931 194.017 149.931 193.088V186.473C149.931 186.001 150.313 185.619 150.784 185.619H155.448C156.084 185.619 156.668 185.973 156.962 186.537L160.783 193.866C161.073 194.422 161.648 194.771 162.275 194.771H162.514C163.816 194.771 164.625 193.356 163.965 192.234L159.759 185.085L160.258 184.836C162.893 183.483 164.46 180.527 164.46 177.572C164.46 172.301 161.112 169.915 156.056 169.915H147.723C146.819 169.915 146.085 170.649 146.085 171.554C146.085 172.458 146.819 173.192 147.723 173.192H155.522C158.192 173.192 160.934 174.153 160.934 177.678C160.934 181.061 158.406 182.557 155.557 182.557H146.938C146.467 182.557 146.085 182.939 146.085 183.41V193.088ZM170.661 173.654C169.629 173.654 168.792 172.817 168.792 171.785C168.792 170.752 169.629 169.915 170.661 169.915H185.13C186.163 169.915 187 170.752 187 171.785C187 172.817 186.163 173.654 185.13 173.654H170.661ZM170.536 184.088C169.573 184.088 168.792 183.307 168.792 182.343C168.792 181.38 169.573 180.598 170.536 180.598H185.255C186.219 180.598 187 181.38 187 182.343C187 183.307 186.219 184.088 185.255 184.088H170.536ZM170.679 194.771C169.637 194.771 168.792 193.926 168.792 192.884C168.792 191.841 169.637 190.996 170.679 190.996H185.113C186.155 190.996 187 191.841 187 192.884C187 193.926 186.155 194.771 185.113 194.771H170.679Z" fill="white"/>
</svg>
